<svg width="250" height="250" viewBox="0 0 250 250" fill="none" xmlns="http://www.w3.org/2000/svg">
<path d="M242.179 125C242.179 92.6434 229.061 63.3464 207.861 42.1385C186.653 20.9391 157.356 7.8125 124.999 7.8125C92.6426 7.8125 63.3374 20.9391 42.1377 42.1385C20.9383 63.3378 7.8125 92.6434 7.8125 125C7.8125 157.357 20.931 186.654 42.1307 207.862C63.3301 229.061 92.6352 242.18 124.992 242.18C157.348 242.18 186.645 229.062 207.853 207.862C229.061 186.654 242.179 157.357 242.179 125ZM213.387 36.6127C235.995 59.2283 250 90.4783 250 125C250 159.522 236.002 190.772 213.387 213.387C190.772 236.002 159.522 250 125 250C90.4783 250 59.2206 236.002 36.6127 213.387C13.9894 190.763 0 159.522 0 125C0 90.4783 13.9975 59.2283 36.6127 36.6127C59.2279 13.9971 90.4783 0 125 0C159.505 0 190.772 13.9975 213.387 36.6127Z" fill="black"/>
<path d="M141.463 108.537C142.986 110.059 142.986 112.541 141.463 114.063C139.941 115.584 137.459 115.584 135.938 114.063C134.441 112.565 132.724 111.434 130.934 110.693C129.062 109.92 127.043 109.53 125.008 109.53C121.053 109.53 117.09 111.044 114.072 114.063C112.574 115.56 111.443 117.277 110.702 119.068C109.929 120.939 109.538 122.965 109.538 125C109.538 128.955 111.052 132.919 114.072 135.938C115.569 137.435 117.286 138.566 119.068 139.307H119.085C120.956 140.08 122.975 140.47 125.009 140.47C128.965 140.47 132.928 138.957 135.946 135.938C137.469 134.415 139.95 134.415 141.472 135.938C142.994 137.459 142.994 139.941 141.472 141.463C136.931 146.003 130.965 148.282 125.008 148.282C121.997 148.282 118.954 147.688 116.089 146.5V146.492C113.322 145.344 110.742 143.659 108.545 141.462C104.004 136.921 101.726 130.956 101.726 124.999C101.726 121.988 102.32 118.944 103.508 116.08C104.647 113.329 106.34 110.741 108.545 108.536C113.087 103.995 119.052 101.716 125.009 101.716C128.019 101.716 131.063 102.311 133.928 103.499C136.67 104.639 139.258 106.332 141.463 108.537Z" fill="black"/>
<path d="M159.912 84.562C161.435 83.0399 163.916 83.0399 165.438 84.562C166.96 86.0836 166.96 88.5656 165.438 90.0877L127.767 127.767C126.244 129.289 123.763 129.289 122.241 127.767C120.719 126.244 120.719 123.763 122.241 122.241L159.912 84.562Z" fill="black"/>
<path d="M86.2552 121.094C88.4116 121.094 90.1616 122.843 90.1616 125C90.1616 127.157 88.412 128.907 86.2552 128.907H20.8581C18.7017 128.907 16.9517 127.157 16.9517 125C16.9517 122.843 18.7013 121.094 20.8581 121.094H86.2552Z" fill="black"/>
<path d="M165.454 128.906C163.297 128.906 161.547 127.157 161.547 125C161.547 122.843 163.297 121.094 165.454 121.094H229.142C231.298 121.094 233.048 122.843 233.048 125C233.048 127.157 231.299 128.906 229.142 128.906H165.454Z" fill="black"/>
<path d="M128.906 86.2547C128.906 88.4111 127.157 90.1611 125 90.1611C122.843 90.1611 121.094 88.4115 121.094 86.2547V20.8576C121.094 18.7012 122.843 16.9512 125 16.9512C127.157 16.9512 128.906 18.7008 128.906 20.8576V86.2547Z" fill="black"/>
<path d="M121.094 165.454C121.094 163.297 122.843 161.547 125 161.547C127.157 161.547 128.907 163.297 128.907 165.454V229.142C128.907 231.298 127.157 233.048 125 233.048C122.843 233.048 121.094 231.299 121.094 229.142V165.454Z" fill="black"/>
<path d="M178.141 61.019L173.787 65.3728L173.779 65.381L173.787 65.3895L172.575 66.602L166.577 72.5999V83.4234H177.417L188.981 71.8675H182.047C179.891 71.8675 178.141 70.1179 178.141 67.961V67.8471L178.141 61.019ZM168.27 59.8716L179.093 49.0399C179.81 48.218 180.868 47.689 182.047 47.689C184.203 47.689 185.953 49.4386 185.953 51.5954V64.0464H198.397V64.0627C199.397 64.0627 200.398 64.4451 201.163 65.2102C202.677 66.7323 202.669 69.2061 201.147 70.7196L181.973 89.8846C181.257 90.7065 180.199 91.2355 179.02 91.2355H162.776H162.678C160.522 91.2355 158.772 89.4859 158.772 87.3295V70.9802C158.772 69.979 159.155 68.9782 159.92 68.2135L167.065 61.0681L168.278 59.8638L168.27 59.8716Z" fill="black"/>
<path d="M171.867 60.6932C173.6 61.9547 173.983 64.3881 172.721 66.1214C171.46 67.8546 169.027 68.2374 167.293 66.9759C166.276 66.2353 165.137 65.4539 163.892 64.6565L163.631 64.4776C162.638 63.8428 161.54 63.1838 160.359 62.5164C159.172 61.8407 157.942 61.1896 156.697 60.5711C155.403 59.9281 154.15 59.3505 152.945 58.846C150.821 57.9428 148.599 57.1369 146.321 56.4289C144.091 55.7374 141.812 55.1434 139.509 54.6794V54.6875L139.386 54.663C137.27 54.2639 135.888 52.2133 136.295 50.0977C136.694 47.9816 138.744 46.5985 140.86 47.0053L140.982 47.0298V47.038H141.031C143.61 47.567 146.15 48.2182 148.616 48.9829C151.081 49.7476 153.547 50.6512 155.964 51.6765C157.436 52.295 158.845 52.9379 160.147 53.5891C161.514 54.2643 162.881 54.989 164.207 55.7455C165.371 56.4048 166.599 57.1455 167.886 57.9751L168.097 58.0972C169.279 58.8542 170.549 59.7251 171.867 60.6932ZM125 45.4102C127.156 45.4102 128.906 47.1597 128.906 49.3166C128.906 51.4735 127.157 53.2231 125 53.2231C122.453 53.2231 120.011 53.3452 117.708 53.5727C115.283 53.817 112.875 54.183 110.531 54.6634C108.219 55.1352 105.924 55.7292 103.679 56.4294C101.4 57.1373 99.1781 57.9514 97.0544 58.8464C94.9383 59.7414 92.8468 60.7508 90.8207 61.8575L90.8044 61.866L90.8125 61.8742C88.8027 62.9567 86.8166 64.1691 84.8799 65.4796C82.951 66.7733 81.0956 68.1569 79.346 69.6054L79.1508 69.7521C77.5315 71.0948 75.8791 72.6087 74.2435 74.2525C72.5425 75.9535 70.9804 77.6704 69.5968 79.3387L69.5887 79.3468L69.5968 79.355C68.1565 81.1046 66.7647 82.96 65.4706 84.8726C64.1602 86.8097 62.9477 88.7872 61.8656 90.797L61.8575 90.8052L61.8656 90.8133C60.7182 92.9294 59.7092 95.0127 58.8464 97.0552C57.9432 99.1794 57.1373 101.401 56.4294 103.679C55.7296 105.926 55.1438 108.212 54.6716 110.515H54.6798L54.6553 110.629C54.2321 112.745 52.1814 114.12 50.0654 113.697C47.9494 113.274 46.574 111.223 46.9972 109.107L47.0217 108.993H47.0298L47.038 108.969C47.567 106.389 48.2182 103.85 48.9829 101.384C49.748 98.9187 50.6512 96.453 51.6765 94.036C52.7182 91.5703 53.8329 89.2427 55.0049 87.0944L55.0131 87.1026C56.25 84.8158 57.5928 82.6021 59.009 80.5106C60.433 78.4028 61.971 76.3522 63.5989 74.3828H63.5907C65.2835 72.324 67.0004 70.4359 68.7096 68.7186C70.3779 67.0503 72.2088 65.382 74.2108 63.73L74.3652 63.5915C76.3264 61.9641 78.3856 60.4257 80.4931 59.0098C82.5846 57.594 84.8064 56.2513 87.1009 55.0057L87.1091 55.0139C89.3309 53.8097 91.6504 52.6863 94.0266 51.6855C96.4437 50.6602 98.9093 49.7566 101.375 48.9919C103.841 48.2267 106.38 47.5678 108.96 47.047C111.564 46.518 114.234 46.103 116.935 45.8346C119.678 45.5486 122.371 45.4102 125 45.4102ZM45.4102 125C45.4102 122.844 47.1597 121.094 49.3166 121.094C51.4735 121.094 53.2231 122.843 53.2231 125C53.2231 127.547 53.3452 129.989 53.5727 132.292C53.817 134.717 54.183 137.126 54.6634 139.469C55.1352 141.781 55.7292 144.076 56.4294 146.322C57.1373 148.6 57.9514 150.822 58.8464 152.946C59.7414 155.062 60.7508 157.145 61.8575 159.188C62.9314 161.165 64.1442 163.159 65.4706 165.128C66.797 167.097 68.1888 168.953 69.5968 170.662C70.9722 172.331 72.5425 174.04 74.2435 175.741L74.4469 175.96C76.0258 177.531 77.6614 179.012 79.3219 180.387L79.3301 180.396L79.3383 180.387C81.0879 181.836 82.9436 183.22 84.864 184.514C86.8011 185.824 88.7868 187.037 90.7966 188.118L91 188.232C92.9694 189.298 94.9955 190.267 97.0466 191.138C99.1708 192.041 101.384 192.847 103.671 193.555C105.925 194.255 108.212 194.848 110.523 195.32C112.875 195.801 115.275 196.166 117.701 196.411C120.004 196.639 122.445 196.76 124.992 196.76C127.149 196.76 128.899 198.51 128.899 200.667C128.899 202.823 127.149 204.573 124.992 204.573C122.364 204.573 119.67 204.427 116.935 204.158C114.234 203.889 111.573 203.474 108.96 202.944C106.381 202.415 103.842 201.764 101.376 201C98.9097 200.234 96.4441 199.331 94.027 198.306C91.7075 197.321 89.4371 196.239 87.2643 195.067L87.1017 194.977C84.8068 193.731 82.5932 192.381 80.4939 190.973C78.3942 189.556 76.3354 188.019 74.366 186.391L74.3742 186.382C72.4698 184.812 70.6553 183.168 68.9461 181.468L68.7263 181.264C67.0172 179.555 65.3003 177.667 63.5993 175.6C61.931 173.598 60.3848 171.54 59.0012 169.497C57.6095 167.438 56.2668 165.216 55.0135 162.905C53.8011 160.667 52.6859 158.348 51.6769 155.963C50.6516 153.546 49.748 151.08 48.9833 148.615C48.2186 146.15 47.5593 143.61 47.0384 141.031C46.5094 138.426 46.0944 135.757 45.826 133.056C45.5486 130.322 45.4102 127.629 45.4102 125ZM140.893 202.995C138.777 203.418 136.719 202.043 136.304 199.927C135.881 197.811 137.256 195.752 139.372 195.337L139.486 195.313L139.681 195.28C141.911 194.816 144.141 194.238 146.306 193.571V193.562C148.625 192.846 150.839 192.032 152.938 191.145C154.972 190.283 157.064 189.265 159.179 188.126L159.408 188.012C161.337 186.962 163.248 185.79 165.12 184.521C167.04 183.227 168.889 181.843 170.646 180.395L170.841 180.239C172.452 178.897 174.097 177.391 175.74 175.747C177.45 174.038 179.02 172.33 180.395 170.653C181.803 168.944 183.187 167.088 184.513 165.127C185.839 163.159 187.052 161.172 188.127 159.212H188.118C189.241 157.127 190.259 155.029 191.138 152.953C192.041 150.83 192.847 148.607 193.555 146.329C194.255 144.075 194.849 141.788 195.32 139.477C195.801 137.125 196.167 134.724 196.411 132.3C196.639 129.996 196.761 127.556 196.761 125.008C196.761 122.851 198.51 121.102 200.667 121.102C202.824 121.102 204.573 122.851 204.573 125.008C204.573 127.637 204.427 130.33 204.158 133.065C203.89 135.766 203.474 138.428 202.945 141.039C202.416 143.619 201.765 146.158 201 148.624C200.235 151.089 199.332 153.556 198.306 155.972C197.281 158.398 196.158 160.717 194.978 162.906H194.969L194.961 162.922C193.699 165.242 192.357 167.447 190.973 169.506C189.589 171.549 188.052 173.6 186.4 175.609C184.699 177.676 182.973 179.572 181.265 181.281C179.613 182.934 177.79 184.586 175.812 186.229L175.609 186.408C173.631 188.044 171.581 189.574 169.48 190.998C167.447 192.382 165.298 193.683 163.068 194.896L162.897 194.993C160.748 196.158 158.422 197.281 155.956 198.322C153.514 199.347 151.048 200.258 148.623 201.015H148.607C146.231 201.748 143.79 202.383 141.315 202.903L141.006 202.977L140.893 202.995ZM202.995 109.098C203.418 111.214 202.043 113.265 199.927 113.688C197.811 114.112 195.76 112.736 195.337 110.62L195.313 110.506L195.28 110.311C194.816 108.073 194.238 105.851 193.563 103.67C192.855 101.392 192.041 99.17 191.146 97.0462C190.316 95.0687 191.243 92.7819 193.221 91.9518C195.199 91.1218 197.485 92.0494 198.316 94.027C199.342 96.4441 200.245 98.9097 201.01 101.376C201.75 103.744 202.377 106.193 202.898 108.676L202.971 108.977L202.995 109.098Z" fill="black"/>
</svg>
