<svg width="81" height="88" viewBox="0 0 81 88" fill="none" xmlns="http://www.w3.org/2000/svg">
<path d="M68.6051 71.7595L63.0226 77.1443L53.2051 83.2718L46.6601 84.7573L41.4626 85.5H35.8801L28.7575 84.0145L23.945 82.5291L20.6725 80.4866L16.4375 77.887L13.7425 75.6588L11.8175 73.802L10.6625 72.5022L8.73755 71.0168M8.73755 71.0168L16.4375 72.5022M8.73755 71.0168L9.70005 77.887" stroke="#A78BFA" stroke-width="4" stroke-linecap="round"/>
<path d="M4.8875 62.8467L2.77 57.0906L2 50.7774V45.3926L2.77 41.1219L4.8875 35.7371L7.1975 31.0951L10.47 26.8244L14.705 22.7394L18.94 19.3971L23.56 16.7975L28.565 14.9407L32.415 13.8266M32.415 13.8266L30.105 18.6543M32.415 13.8266L27.6025 11.2271" stroke="#A78BFA" stroke-width="4" stroke-linecap="round"/>
<path d="M44.735 13.6409L48.7775 14.5693L53.0125 16.2405L56.4775 18.0973L59.9425 19.9541L63.6 22.7394L67.45 25.896L70.915 31.0951L73.225 35.7371L75.3425 42.236L75.92 45.5783V49.6633L75.3425 55.7908L74.5725 59.5045L73.8025 61.547M73.8025 61.547L79 59.5045M73.8025 61.547L70.915 55.7908" stroke="#A78BFA" stroke-width="4" stroke-linecap="round" stroke-linejoin="round"/>
<path d="M20.865 72.5022H37.42V63.0324H54.1675V53.1913H66.4875" stroke="#A78BFA" stroke-width="4" stroke-linecap="round"/>
<path d="M41.655 30.3523L42.6175 32.7662L45.12 34.623L48.7775 34.216M41.655 30.3523L42.6175 27.5671L45.12 25.5246H47.6225L49.5475 26.453L50.125 28.1242L50.7025 30.3523L50.125 32.0235L48.7775 34.216M41.655 30.3523V26.453V21.6253L40.115 19.2114L39.73 17.9116M48.7775 34.216L50.125 34.066L55.9 32.7662L60.7125 32.0235L62.83 34.066L58.4025 37.594L52.435 38.7081H47.6225L45.12 40.1935L43.965 44.4642L49.5475 48.9206L50.125 50.7774L48.7775 54.8624L46.8525 59.8758L45.12 61.7327H43.195H41.655V58.5761L43.195 51.5201L39.345 49.849L27.41 71.0168H22.9825V68.2315L35.88 39.8221L36.265 37.594V21.9966L36.65 19.2114L37.805 17.9116H39.73M39.345 9.92729V13.0839V16.6119L39.73 17.9116M39.345 9.92729V8.8132V4.35682V2.5L48.7775 6.58501L39.345 9.92729Z" stroke="#A78BFA" stroke-width="4" stroke-linecap="round" stroke-linejoin="round"/>
</svg>
