<svg width="89" height="91" viewBox="0 0 89 91" fill="none" xmlns="http://www.w3.org/2000/svg">
<path d="M75.525 74.5973L69.3625 80.2416L58.525 86.6644L51.3 88.2215L45.5625 89H39.4L31.5375 87.443L26.225 85.8859L22.6125 83.745L17.9375 81.0201L14.9625 78.6846L12.8375 76.7383L11.5625 75.3758L9.4375 73.8188M9.4375 73.8188L17.9375 75.3758M9.4375 73.8188L10.5 81.0201" stroke="#A78BFA" stroke-width="4" stroke-linecap="round"/>
<path d="M5.1875 65.255L2.85 59.2215L2 52.604V46.9597L2.85 42.4832L5.1875 36.8389L7.7375 31.9732L11.35 27.4966L16.025 23.2148L20.7 19.7114L25.8 16.9866L31.325 15.0403L35.575 13.8725M35.575 13.8725L33.025 18.9329M35.575 13.8725L30.2625 11.1477" stroke="#A78BFA" stroke-width="4" stroke-linecap="round"/>
<path d="M49.1748 13.6779L53.6373 14.651L58.3123 16.4027L62.1373 18.349L65.9623 20.2953L69.9998 23.2148L74.2498 26.5235L78.0748 31.9732L80.6248 36.8389L82.9623 43.651L83.5998 47.1544V51.4362L82.9623 57.8591L82.1123 61.7517L81.2623 63.8926M81.2623 63.8926L86.9998 61.7517M81.2623 63.8926L78.0748 57.8591" stroke="#A78BFA" stroke-width="4" stroke-linecap="round" stroke-linejoin="round"/>
<path d="M22.8252 75.3758H41.1002V65.4497H59.5877V55.1342H73.1877" stroke="#A78BFA" stroke-width="4" stroke-linecap="round"/>
<path d="M45.7751 31.1946L46.8376 33.7248L49.6001 35.6711L53.6376 35.2444M45.7751 31.1946L46.8376 28.2752L49.6001 26.1342H52.3626L54.4876 27.1074L55.1251 28.8591L55.7626 31.1946L55.1251 32.9463L53.6376 35.2444M45.7751 31.1946V27.1074V22.047L44.0751 19.5168L43.6501 18.1544M53.6376 35.2444L55.1251 35.0872L61.5001 33.7248L66.8126 32.9463L69.1501 35.0872L64.2626 38.7852L57.6751 39.953H52.3626L49.6001 41.5101L48.3251 45.9866L54.4876 50.6577L55.1251 52.604L53.6376 56.8859L51.5126 62.1409L49.6001 64.0872H47.4751H45.7751V60.7785L47.4751 53.3825L43.2251 51.6309L30.0501 73.8188H25.1626V70.8993L39.4001 41.1208L39.8251 38.7852V22.4362L40.2501 19.5168L41.5251 18.1544H43.6501M43.2251 9.78523V13.094V16.7919L43.6501 18.1544M43.2251 9.78523V8.61745V3.94631V2L53.6376 6.28188L43.2251 9.78523Z" stroke="#A78BFA" stroke-width="4" stroke-linecap="round" stroke-linejoin="round"/>
</svg>
